<svg width="200" height="200" xmlns="http://www.w3.org/2000/svg">
  <style>
    @keyframes pulse {
      0% { r: 3; opacity: 0.1; }
      50% { r: 5; opacity: 0.3; }
      100% { r: 3; opacity: 0.1; }
    }
    .dot {
      animation: pulse 3s infinite;
      transform-origin: center;
    }
    .dot:nth-child(3n) { animation-delay: 0.5s; }
    .dot:nth-child(3n+1) { animation-delay: 1s; }
    .dot:nth-child(3n+2) { animation-delay: 1.5s; }
    .dot:nth-child(7n) { animation-duration: 4s; }
    .dot:nth-child(5n) { animation-duration: 5s; }
  </style>
  <g fill="#154CB3">
    <circle class="dot" cx="10" cy="10" r="3" opacity="0.1" />
    <circle class="dot" cx="40" cy="10" r="3" opacity="0.1" />
    <circle class="dot" cx="70" cy="10" r="3" opacity="0.1" />
    <circle class="dot" cx="100" cy="10" r="3" opacity="0.1" />
    <circle class="dot" cx="130" cy="10" r="3" opacity="0.1" />
    <circle class="dot" cx="160" cy="10" r="3" opacity="0.1" />
    <circle class="dot" cx="190" cy="10" r="3" opacity="0.1" />
    <circle class="dot" cx="10" cy="40" r="3" opacity="0.1" />
    <circle class="dot" cx="40" cy="40" r="3" opacity="0.1" />
    <circle class="dot" cx="70" cy="40" r="3" opacity="0.1" />
    <circle class="dot" cx="100" cy="40" r="3" opacity="0.1" />
    <circle class="dot" cx="130" cy="40" r="3" opacity="0.1" />
    <circle class="dot" cx="160" cy="40" r="3" opacity="0.1" />
    <circle class="dot" cx="190" cy="40" r="3" opacity="0.1" />
    <circle class="dot" cx="10" cy="70" r="3" opacity="0.1" />
    <circle class="dot" cx="40" cy="70" r="3" opacity="0.1" />
    <circle class="dot" cx="70" cy="70" r="3" opacity="0.1" />
    <circle class="dot" cx="100" cy="70" r="3" opacity="0.1" />
    <circle class="dot" cx="130" cy="70" r="3" opacity="0.1" />
    <circle class="dot" cx="160" cy="70" r="3" opacity="0.1" />
    <circle class="dot" cx="190" cy="70" r="3" opacity="0.1" />
    <circle class="dot" cx="10" cy="100" r="3" opacity="0.1" />
    <circle class="dot" cx="40" cy="100" r="3" opacity="0.1" />
    <circle class="dot" cx="70" cy="100" r="3" opacity="0.1" />
    <circle class="dot" cx="100" cy="100" r="3" opacity="0.1" />
    <circle class="dot" cx="130" cy="100" r="3" opacity="0.1" />
    <circle class="dot" cx="160" cy="100" r="3" opacity="0.1" />
    <circle class="dot" cx="190" cy="100" r="3" opacity="0.1" />
    <circle class="dot" cx="10" cy="130" r="3" opacity="0.1" />
    <circle class="dot" cx="40" cy="130" r="3" opacity="0.1" />
    <circle class="dot" cx="70" cy="130" r="3" opacity="0.1" />
    <circle class="dot" cx="100" cy="130" r="3" opacity="0.1" />
    <circle class="dot" cx="130" cy="130" r="3" opacity="0.1" />
    <circle class="dot" cx="160" cy="130" r="3" opacity="0.1" />
    <circle class="dot" cx="190" cy="130" r="3" opacity="0.1" />
    <circle class="dot" cx="10" cy="160" r="3" opacity="0.1" />
    <circle class="dot" cx="40" cy="160" r="3" opacity="0.1" />
    <circle class="dot" cx="70" cy="160" r="3" opacity="0.1" />
    <circle class="dot" cx="100" cy="160" r="3" opacity="0.1" />
    <circle class="dot" cx="130" cy="160" r="3" opacity="0.1" />
    <circle class="dot" cx="160" cy="160" r="3" opacity="0.1" />
    <circle class="dot" cx="190" cy="160" r="3" opacity="0.1" />
    <circle class="dot" cx="10" cy="190" r="3" opacity="0.1" />
    <circle class="dot" cx="40" cy="190" r="3" opacity="0.1" />
    <circle class="dot" cx="70" cy="190" r="3" opacity="0.1" />
    <circle class="dot" cx="100" cy="190" r="3" opacity="0.1" />
    <circle class="dot" cx="130" cy="190" r="3" opacity="0.1" />
    <circle class="dot" cx="160" cy="190" r="3" opacity="0.1" />
    <circle class="dot" cx="190" cy="190" r="3" opacity="0.1" />
  </g>
</svg>