<svg width="200" height="200" xmlns="http://www.w3.org/2000/svg">
  <g fill="#154CB3" fill-opacity="0.1">
    <circle cx="10" cy="10" r="3" />
    <circle cx="40" cy="10" r="3" />
    <circle cx="70" cy="10" r="3" />
    <circle cx="100" cy="10" r="3" />
    <circle cx="130" cy="10" r="3" />
    <circle cx="160" cy="10" r="3" />
    <circle cx="190" cy="10" r="3" />
    <circle cx="10" cy="40" r="3" />
    <circle cx="40" cy="40" r="3" />
    <circle cx="70" cy="40" r="3" />
    <circle cx="100" cy="40" r="3" />
    <circle cx="130" cy="40" r="3" />
    <circle cx="160" cy="40" r="3" />
    <circle cx="190" cy="40" r="3" />
    <circle cx="10" cy="70" r="3" />
    <circle cx="40" cy="70" r="3" />
    <circle cx="70" cy="70" r="3" />
    <circle cx="100" cy="70" r="3" />
    <circle cx="130" cy="70" r="3" />
    <circle cx="160" cy="70" r="3" />
    <circle cx="190" cy="70" r="3" />
    <circle cx="10" cy="100" r="3" />
    <circle cx="40" cy="100" r="3" />
    <circle cx="70" cy="100" r="3" />
    <circle cx="100" cy="100" r="3" />
    <circle cx="130" cy="100" r="3" />
    <circle cx="160" cy="100" r="3" />
    <circle cx="190" cy="100" r="3" />
    <circle cx="10" cy="130" r="3" />
    <circle cx="40" cy="130" r="3" />
    <circle cx="70" cy="130" r="3" />
    <circle cx="100" cy="130" r="3" />
    <circle cx="130" cy="130" r="3" />
    <circle cx="160" cy="130" r="3" />
    <circle cx="190" cy="130" r="3" />
    <circle cx="10" cy="160" r="3" />
    <circle cx="40" cy="160" r="3" />
    <circle cx="70" cy="160" r="3" />
    <circle cx="100" cy="160" r="3" />
    <circle cx="130" cy="160" r="3" />
    <circle cx="160" cy="160" r="3" />
    <circle cx="190" cy="160" r="3" />
    <circle cx="10" cy="190" r="3" />
    <circle cx="40" cy="190" r="3" />
    <circle cx="70" cy="190" r="3" />
    <circle cx="100" cy="190" r="3" />
    <circle cx="130" cy="190" r="3" />
    <circle cx="160" cy="190" r="3" />
    <circle cx="190" cy="190" r="3" />
  </g>
</svg>