<svg viewBox="0 0 192 192" xmlns="http://www.w3.org/2000/svg">
  <!-- Outer Circle Background -->
  <circle cx="96" cy="96" r="96" fill="#154CB3"/>
  
  <!-- Inner Circle Accent -->
  <circle cx="96" cy="96" r="88" fill="none" stroke="#FFCC00" stroke-width="4"/>
  
  <!-- Letter S with rounded curves -->
  <g>
    <!-- Top curve of S -->
    <path d="M 144 56 C 144 44 132 36 118 36 C 108 36 99 42 99 52 C 99 60 105 66 115 68 C 130 70 140 76 140 88" fill="none" stroke="#FFCC00" stroke-width="12" stroke-linecap="round" stroke-linejoin="round"/>
    
    <!-- Bottom curve of S -->
    <path d="M 140 104 C 140 116 130 122 118 122 C 104 122 92 116 92 104 C 92 96 98 90 108 88 C 123 86 148 80 148 56" fill="none" stroke="#FFCC00" stroke-width="12" stroke-linecap="round" stroke-linejoin="round"/>
    
    <!-- Stylized event indicator dots -->
    <circle cx="65" cy="110" r="6" fill="#FFCC00" opacity="0.8"/>
    <circle cx="80" cy="125" r="5" fill="#FFCC00" opacity="0.6"/>
  </g>
  
  <!-- Highlight shimmer -->
  <circle cx="96" cy="96" r="88" fill="none" stroke="#FFFFFF" stroke-width="1" opacity="0.3"/>
</svg>
